<svg xmlns="http://www.w3.org/2000/svg" viewBox="0 0 900 1026" width="900" height="1026" role="img" aria-label="A figure in three-quarter profile, dark against a hot orange field, with a cold highlight along the lit edge">
<defs>
  <radialGradient id="p20260901-glow" cx="0.62" cy="0.4" r="0.78">
    <stop offset="0" stop-color="#ff8a00"/>
    <stop offset="0.45" stop-color="#fd321c"/>
    <stop offset="1" stop-color="#c31d12"/>
  </radialGradient>
  <linearGradient id="p20260901-floor" x1="0" y1="0" x2="0" y2="1">
    <stop offset="0" stop-color="#c31d12" stop-opacity="0"/>
    <stop offset="1" stop-color="#5c0b06" stop-opacity="0.85"/>
  </linearGradient>
  <linearGradient id="p20260901-body" x1="0.1" y1="0" x2="0.9" y2="1">
    <stop offset="0" stop-color="#101018"/>
    <stop offset="0.55" stop-color="#08080b"/>
    <stop offset="1" stop-color="#05050a"/>
  </linearGradient>
  <linearGradient id="p20260901-rim" x1="0" y1="0" x2="1" y2="0.35">
    <stop offset="0" stop-color="#8fc2ff" stop-opacity="0"/>
    <stop offset="0.55" stop-color="#8fc2ff" stop-opacity="0.9"/>
    <stop offset="1" stop-color="#3d7bff" stop-opacity="0.15"/>
  </linearGradient>
  <clipPath id="p20260901-frame"><rect width="900" height="1026"/></clipPath>
  <!-- Keeps the rim inside the silhouette: a centred stroke would otherwise
       spill half its width onto the orange and read as an outline. -->
  <mask id="p20260901-figure">
    <path d="M 444.8 75.2 C 555.2 60.8 651.2 142.4 646.4 248 C 641.6 300.8 617.6 310.4 608 291.2 C 593.6 224 545.6 161.6 464 161.6 C 387.2 161.6 344 228.8 329.6 329.6 C 315.2 440 329.6 550.4 300.8 656 C 281.6 732.8 238.4 800 209.6 1040 L 80 1040 C 104 680 161.6 440 190.4 310.4 C 219.2 176 334.4 89.6 444.8 75.2 Z" fill="#fff"/>
    <path d="M 440 80 C 550.4 72.8 632 152 641.6 257.6 C 646.4 310.4 632 329.6 651.2 348.8 C 665.6 363.2 641.6 372.8 636.8 392 C 632 416 646.4 430.4 627.2 444.8 C 612.8 456.8 584 459.2 564.8 464 C 550.4 488 555.2 521.6 545.6 550.4 C 536 584 507.2 593.6 454.4 612.8 C 377.6 639.2 315.2 684.8 281.6 766.4 L 281.6 1040 L 670.4 1040 C 670.4 680 617.6 622.4 564.8 593.6 C 521.6 569.6 502.4 536 497.6 492.8 C 444.8 464 401.6 387.2 406.4 291.2 C 411.2 185.6 401.6 94.4 440 80 Z" fill="#fff"/>
  </mask>
</defs>
<g clip-path="url(#p20260901-frame)">
  <rect width="900" height="1026" fill="url(#p20260901-glow)"/>
  <rect width="900" height="1026" fill="url(#p20260901-floor)"/>
  <line x1="357.68" y1="292.27" x2="352.64" y2="309.07" stroke="#ffffff" stroke-opacity="0.01" stroke-width="1.12"/><line x1="883.84" y1="102.21" x2="865.4" y2="113.73" stroke="#ffffff" stroke-opacity="0.01" stroke-width="0.94"/><line x1="398.92" y1="520.7" x2="389.94" y2="532.28" stroke="#ffffff" stroke-opacity="0" stroke-width="0.95"/><line x1="503.42" y1="185.82" x2="481.74" y2="193.47" stroke="#ffffff" stroke-opacity="0.03" stroke-width="1.31"/><line x1="556.59" y1="981.53" x2="524.19" y2="998.89" stroke="#ffffff" stroke-opacity="0.03" stroke-width="1.13"/><line x1="27.81" y1="811.68" x2="-5.09" y2="831.32" stroke="#ffffff" stroke-opacity="0.04" stroke-width="1.37"/><line x1="392.31" y1="389.94" x2="401.63" y2="410.36" stroke="#ffffff" stroke-opacity="0.03" stroke-width="0.78"/><line x1="702.17" y1="229.96" x2="703.93" y2="256.35" stroke="#ffffff" stroke-opacity="0.03" stroke-width="1.43"/><line x1="360.37" y1="620.62" x2="338.84" y2="637.69" stroke="#ffffff" stroke-opacity="0.01" stroke-width="1.69"/><line x1="642.92" y1="932.18" x2="640.33" y2="945.4" stroke="#ffffff" stroke-opacity="0.02" stroke-width="0.73"/><line x1="34.47" y1="82.6" x2="48.56" y2="101.54" stroke="#ffffff" stroke-opacity="0.04" stroke-width="1.27"/><line x1="96.25" y1="275.18" x2="90.46" y2="298.58" stroke="#ffffff" stroke-opacity="0.03" stroke-width="1.06"/><line x1="353.7" y1="1002.06" x2="377.78" y2="1016.85" stroke="#ffffff" stroke-opacity="0.04" stroke-width="1.37"/><line x1="105.62" y1="904.55" x2="131.13" y2="908.61" stroke="#ffffff" stroke-opacity="0" stroke-width="1.44"/><line x1="198.72" y1="907.52" x2="205.8" y2="908.92" stroke="#ffffff" stroke-opacity="0.04" stroke-width="1.7"/><line x1="311.78" y1="627.1" x2="305.8" y2="637.99" stroke="#ffffff" stroke-opacity="0.04" stroke-width="0.92"/><line x1="334.04" y1="427.62" x2="351.35" y2="441.36" stroke="#ffffff" stroke-opacity="0.01" stroke-width="1.24"/><line x1="33.82" y1="640.13" x2="56.22" y2="643.55" stroke="#ffffff" stroke-opacity="0.01" stroke-width="1.43"/><line x1="77.31" y1="261" x2="89" y2="268.68" stroke="#ffffff" stroke-opacity="0.02" stroke-width="1.23"/><line x1="704.5" y1="487.73" x2="719.33" y2="518.49" stroke="#ffffff" stroke-opacity="0.04" stroke-width="0.65"/><line x1="181.72" y1="447.47" x2="175.77" y2="463.98" stroke="#ffffff" stroke-opacity="0.02" stroke-width="1.49"/><line x1="758.53" y1="697.13" x2="742.33" y2="709.75" stroke="#ffffff" stroke-opacity="0.01" stroke-width="1.54"/><line x1="442.15" y1="962.95" x2="431.81" y2="963.17" stroke="#ffffff" stroke-opacity="0.03" stroke-width="1.07"/><line x1="397.05" y1="446.35" x2="378.17" y2="466.14" stroke="#ffffff" stroke-opacity="0.04" stroke-width="1.58"/><line x1="561.35" y1="864.43" x2="539.3" y2="896.12" stroke="#ffffff" stroke-opacity="0.04" stroke-width="0.82"/><line x1="576.82" y1="442.98" x2="592.6" y2="465.78" stroke="#ffffff" stroke-opacity="0.01" stroke-width="0.91"/><line x1="436.81" y1="650.28" x2="436.24" y2="661.31" stroke="#ffffff" stroke-opacity="0.01" stroke-width="0.65"/><line x1="597.58" y1="930.48" x2="604.34" y2="934.93" stroke="#ffffff" stroke-opacity="0.01" stroke-width="0.79"/><line x1="754.41" y1="445.38" x2="747.97" y2="467.63" stroke="#ffffff" stroke-opacity="0.04" stroke-width="0.91"/><line x1="685.97" y1="384.87" x2="701.51" y2="408.46" stroke="#ffffff" stroke-opacity="0.03" stroke-width="1.23"/><line x1="499.76" y1="215.26" x2="501.27" y2="223.58" stroke="#ffffff" stroke-opacity="0.03" stroke-width="0.94"/><line x1="899.5" y1="721.01" x2="893.12" y2="727.04" stroke="#ffffff" stroke-opacity="0" stroke-width="1.69"/><line x1="823.12" y1="261.72" x2="827.67" y2="299.56" stroke="#ffffff" stroke-opacity="0.05" stroke-width="1.58"/><line x1="498.93" y1="460.49" x2="486.7" y2="485.02" stroke="#ffffff" stroke-opacity="0.01" stroke-width="1.12"/><line x1="618.88" y1="509.17" x2="631.92" y2="515.45" stroke="#ffffff" stroke-opacity="0.04" stroke-width="0.82"/><line x1="362.58" y1="661.39" x2="370.32" y2="667.77" stroke="#ffffff" stroke-opacity="0" stroke-width="1.63"/><line x1="5.56" y1="425.09" x2="-18.66" y2="441.07" stroke="#ffffff" stroke-opacity="0.01" stroke-width="0.96"/><line x1="440.98" y1="444.74" x2="456.24" y2="462.08" stroke="#ffffff" stroke-opacity="0.01" stroke-width="0.61"/><line x1="217.18" y1="648.96" x2="209.34" y2="656.71" stroke="#ffffff" stroke-opacity="0.04" stroke-width="1.61"/><line x1="675.23" y1="249.03" x2="670.74" y2="285.02" stroke="#ffffff" stroke-opacity="0.02" stroke-width="1.53"/><line x1="342.04" y1="478.04" x2="321.76" y2="487.87" stroke="#ffffff" stroke-opacity="0.01" stroke-width="0.67"/><line x1="527.65" y1="420.7" x2="493.44" y2="438.71" stroke="#ffffff" stroke-opacity="0.02" stroke-width="1.11"/><line x1="569.8" y1="1005.11" x2="577" y2="1016.21" stroke="#ffffff" stroke-opacity="0.04" stroke-width="1.37"/><line x1="598.04" y1="446.75" x2="604.97" y2="446.96" stroke="#ffffff" stroke-opacity="0.04" stroke-width="1.32"/><line x1="232.73" y1="361.98" x2="200.23" y2="369.14" stroke="#ffffff" stroke-opacity="0.03" stroke-width="0.68"/><line x1="123.95" y1="288.64" x2="111.77" y2="294.17" stroke="#ffffff" stroke-opacity="0.03" stroke-width="1.18"/><line x1="752.25" y1="610.53" x2="759.43" y2="610.65" stroke="#ffffff" stroke-opacity="0.05" stroke-width="0.71"/><line x1="588.62" y1="402.4" x2="566.52" y2="409.6" stroke="#ffffff" stroke-opacity="0.03" stroke-width="0.88"/><line x1="426.48" y1="936.17" x2="441.97" y2="936.4" stroke="#ffffff" stroke-opacity="0.03" stroke-width="1.3"/><line x1="684.73" y1="365.22" x2="697.71" y2="388.41" stroke="#ffffff" stroke-opacity="0.02" stroke-width="1.12"/><line x1="619.9" y1="276.66" x2="632.88" y2="308.51" stroke="#ffffff" stroke-opacity="0.01" stroke-width="1.59"/><line x1="507.64" y1="388.56" x2="487.61" y2="419.26" stroke="#ffffff" stroke-opacity="0.04" stroke-width="1.15"/><line x1="840.99" y1="969.87" x2="863.5" y2="988.5" stroke="#ffffff" stroke-opacity="0.03" stroke-width="1.45"/><line x1="676.41" y1="1020.76" x2="715.22" y2="1027.59" stroke="#ffffff" stroke-opacity="0.01" stroke-width="1.02"/><line x1="18.75" y1="130.68" x2="9.45" y2="142.08" stroke="#ffffff" stroke-opacity="0.03" stroke-width="1.17"/><line x1="306.12" y1="702.46" x2="288.2" y2="713.21" stroke="#ffffff" stroke-opacity="0.04" stroke-width="0.83"/><line x1="814.16" y1="867.55" x2="813.82" y2="876.7" stroke="#ffffff" stroke-opacity="0.03" stroke-width="0.84"/><line x1="679.89" y1="328.67" x2="691.37" y2="365.1" stroke="#ffffff" stroke-opacity="0.05" stroke-width="1.11"/><line x1="527.38" y1="807.82" x2="531.76" y2="829.48" stroke="#ffffff" stroke-opacity="0.03" stroke-width="0.64"/><line x1="94.01" y1="629.89" x2="126.42" y2="644.88" stroke="#ffffff" stroke-opacity="0.04" stroke-width="0.85"/><line x1="86.7" y1="815.37" x2="99.33" y2="831" stroke="#ffffff" stroke-opacity="0.04" stroke-width="1.65"/><line x1="674.73" y1="1012.98" x2="650.35" y2="1038.71" stroke="#ffffff" stroke-opacity="0.04" stroke-width="1.07"/><line x1="730.2" y1="90.81" x2="728.25" y2="117.56" stroke="#ffffff" stroke-opacity="0.03" stroke-width="1.44"/><line x1="489.97" y1="551.35" x2="483.72" y2="561.68" stroke="#ffffff" stroke-opacity="0.01" stroke-width="1.27"/><line x1="515.98" y1="530.61" x2="527.68" y2="536.49" stroke="#ffffff" stroke-opacity="0.03" stroke-width="0.95"/><line x1="304.59" y1="18.03" x2="318.14" y2="45.28" stroke="#ffffff" stroke-opacity="0.01" stroke-width="1.56"/><line x1="321.97" y1="386.45" x2="343.81" y2="391.4" stroke="#ffffff" stroke-opacity="0.02" stroke-width="1.03"/><line x1="552.45" y1="8.27" x2="557.99" y2="12.87" stroke="#ffffff" stroke-opacity="0.03" stroke-width="1.49"/><line x1="421.21" y1="614.32" x2="398.51" y2="639.72" stroke="#ffffff" stroke-opacity="0" stroke-width="1.32"/><line x1="323.9" y1="714.23" x2="292.85" y2="719.6" stroke="#ffffff" stroke-opacity="0.01" stroke-width="1.5"/><line x1="443.54" y1="363.34" x2="419.04" y2="374.85" stroke="#ffffff" stroke-opacity="0.01" stroke-width="1.29"/><line x1="491.97" y1="963.35" x2="497.55" y2="972.94" stroke="#ffffff" stroke-opacity="0.01" stroke-width="1.65"/><line x1="459.72" y1="377.13" x2="455.6" y2="412.11" stroke="#ffffff" stroke-opacity="0.02" stroke-width="1.2"/><line x1="725.79" y1="544.01" x2="701.6" y2="573.2" stroke="#ffffff" stroke-opacity="0.04" stroke-width="0.86"/><line x1="248.79" y1="504.64" x2="276.83" y2="505.06" stroke="#ffffff" stroke-opacity="0.05" stroke-width="1.17"/><line x1="164.68" y1="865.06" x2="146.53" y2="869.52" stroke="#ffffff" stroke-opacity="0.04" stroke-width="0.79"/><line x1="334.66" y1="346.09" x2="300.58" y2="360.51" stroke="#ffffff" stroke-opacity="0.04" stroke-width="1.24"/><line x1="51.28" y1="277.85" x2="66.58" y2="278.05" stroke="#ffffff" stroke-opacity="0.01" stroke-width="1.35"/><line x1="502.94" y1="4.1" x2="484.42" y2="37.52" stroke="#ffffff" stroke-opacity="0.02" stroke-width="0.84"/><line x1="547.2" y1="140.24" x2="552.68" y2="167.39" stroke="#ffffff" stroke-opacity="0.04" stroke-width="1.69"/><line x1="733.8" y1="218.68" x2="708.65" y2="232.37" stroke="#ffffff" stroke-opacity="0.04" stroke-width="1.41"/><line x1="379.68" y1="1022.43" x2="385.89" y2="1056.76" stroke="#ffffff" stroke-opacity="0.01" stroke-width="1.64"/><line x1="711.99" y1="395.06" x2="689.74" y2="411.28" stroke="#ffffff" stroke-opacity="0.02" stroke-width="1.04"/><line x1="92.61" y1="516.83" x2="86.48" y2="546.23" stroke="#ffffff" stroke-opacity="0.03" stroke-width="1.51"/><line x1="599.71" y1="471.99" x2="604.67" y2="486.58" stroke="#ffffff" stroke-opacity="0.02" stroke-width="0.9"/><line x1="0.33" y1="266.98" x2="-22.78" y2="289.24" stroke="#ffffff" stroke-opacity="0.02" stroke-width="1.5"/><line x1="583.51" y1="522.7" x2="618.37" y2="526.96" stroke="#ffffff" stroke-opacity="0.01" stroke-width="0.81"/><line x1="367.81" y1="332.72" x2="363.81" y2="363.32" stroke="#ffffff" stroke-opacity="0.02" stroke-width="1.1"/><line x1="531.05" y1="444.94" x2="532.35" y2="453.3" stroke="#ffffff" stroke-opacity="0.02" stroke-width="0.83"/><line x1="765.45" y1="305.61" x2="799.97" y2="311.65" stroke="#ffffff" stroke-opacity="0.05" stroke-width="1.56"/><line x1="418.59" y1="301.35" x2="416.02" y2="321.02" stroke="#ffffff" stroke-opacity="0" stroke-width="1.31"/><line x1="272.05" y1="168.73" x2="244.8" y2="170.11" stroke="#ffffff" stroke-opacity="0.05" stroke-width="1.29"/><line x1="615.28" y1="75.68" x2="640.05" y2="80.68" stroke="#ffffff" stroke-opacity="0.01" stroke-width="0.98"/><line x1="424.39" y1="307.94" x2="416.22" y2="317.41" stroke="#ffffff" stroke-opacity="0.03" stroke-width="1"/><line x1="435.1" y1="944.93" x2="407.58" y2="947.18" stroke="#ffffff" stroke-opacity="0.02" stroke-width="1.58"/><line x1="436.75" y1="337.73" x2="444.93" y2="349.93" stroke="#ffffff" stroke-opacity="0.04" stroke-width="1.39"/><line x1="792.43" y1="164.1" x2="775.64" y2="192.23" stroke="#ffffff" stroke-opacity="0.03" stroke-width="1.6"/><line x1="539.01" y1="765.71" x2="519.22" y2="774.09" stroke="#ffffff" stroke-opacity="0.04" stroke-width="0.72"/><line x1="822.17" y1="644.52" x2="819.59" y2="673.72" stroke="#ffffff" stroke-opacity="0.03" stroke-width="1.35"/><line x1="706.52" y1="489.85" x2="693.41" y2="505.77" stroke="#ffffff" stroke-opacity="0.02" stroke-width="1.04"/><line x1="150.31" y1="133.47" x2="162.11" y2="168.51" stroke="#ffffff" stroke-opacity="0.04" stroke-width="1.32"/><line x1="280.39" y1="821.6" x2="284.99" y2="828.76" stroke="#ffffff" stroke-opacity="0.03" stroke-width="1.17"/><line x1="725.97" y1="57.08" x2="733.29" y2="57.17" stroke="#ffffff" stroke-opacity="0.01" stroke-width="1.28"/><line x1="601.51" y1="307.87" x2="582.83" y2="331.77" stroke="#ffffff" stroke-opacity="0.03" stroke-width="1.13"/><line x1="550.8" y1="473.2" x2="554.52" y2="486.12" stroke="#ffffff" stroke-opacity="0" stroke-width="1.29"/><line x1="406.76" y1="792.13" x2="417.31" y2="798.85" stroke="#ffffff" stroke-opacity="0.04" stroke-width="1.27"/><line x1="666.65" y1="163.26" x2="648.19" y2="165.77" stroke="#ffffff" stroke-opacity="0.02" stroke-width="1.61"/><line x1="60.93" y1="266.64" x2="67.41" y2="271.47" stroke="#ffffff" stroke-opacity="0.03" stroke-width="1.33"/><line x1="187.52" y1="628.75" x2="195.12" y2="645.21" stroke="#ffffff" stroke-opacity="0.03" stroke-width="1.09"/><line x1="322.66" y1="650.75" x2="301.43" y2="650.94" stroke="#ffffff" stroke-opacity="0" stroke-width="0.8"/><line x1="286.63" y1="702.37" x2="257.25" y2="711.12" stroke="#ffffff" stroke-opacity="0.05" stroke-width="1.4"/><line x1="467.89" y1="404.75" x2="479.36" y2="412.41" stroke="#ffffff" stroke-opacity="0.04" stroke-width="1.13"/><line x1="474.66" y1="546.57" x2="440.79" y2="561.58" stroke="#ffffff" stroke-opacity="0.03" stroke-width="0.77"/><line x1="819.36" y1="626.91" x2="825.55" y2="651.64" stroke="#ffffff" stroke-opacity="0.02" stroke-width="1.61"/><line x1="430.04" y1="210.4" x2="416.35" y2="247.57" stroke="#ffffff" stroke-opacity="0.04" stroke-width="1.68"/><line x1="555.4" y1="186.21" x2="547.89" y2="187.42" stroke="#ffffff" stroke-opacity="0" stroke-width="0.91"/><line x1="167.14" y1="744.35" x2="183.28" y2="747.51" stroke="#ffffff" stroke-opacity="0" stroke-width="1.27"/><line x1="796.6" y1="843.48" x2="798.69" y2="876.21" stroke="#ffffff" stroke-opacity="0.03" stroke-width="1.35"/><line x1="553.52" y1="739.29" x2="562.95" y2="767.29" stroke="#ffffff" stroke-opacity="0" stroke-width="1.57"/><line x1="693.74" y1="478.37" x2="673.9" y2="487.53" stroke="#ffffff" stroke-opacity="0" stroke-width="0.79"/><line x1="111.92" y1="906.15" x2="142.78" y2="931.1" stroke="#ffffff" stroke-opacity="0.01" stroke-width="1.14"/><line x1="565.44" y1="1018.05" x2="567.86" y2="1024.43" stroke="#ffffff" stroke-opacity="0.01" stroke-width="1.5"/><line x1="468.16" y1="841.21" x2="466.5" y2="851.12" stroke="#ffffff" stroke-opacity="0.02" stroke-width="1.54"/><line x1="258.95" y1="463.8" x2="245.03" y2="479.25" stroke="#ffffff" stroke-opacity="0.05" stroke-width="0.81"/><line x1="630.67" y1="80.91" x2="640.72" y2="118.24" stroke="#ffffff" stroke-opacity="0.03" stroke-width="1.5"/><line x1="32.5" y1="228.55" x2="-4.64" y2="237.95" stroke="#ffffff" stroke-opacity="0.02" stroke-width="1.11"/><line x1="112.79" y1="416.01" x2="88.25" y2="434.01" stroke="#ffffff" stroke-opacity="0.04" stroke-width="0.81"/><line x1="682.7" y1="772.5" x2="666.38" y2="792.61" stroke="#ffffff" stroke-opacity="0.02" stroke-width="1.04"/><line x1="533.62" y1="535.87" x2="548.93" y2="556.78" stroke="#ffffff" stroke-opacity="0.02" stroke-width="0.64"/><line x1="765.37" y1="846.9" x2="777.02" y2="878.58" stroke="#ffffff" stroke-opacity="0.04" stroke-width="0.66"/><line x1="58.43" y1="1005.82" x2="30.45" y2="1026.32" stroke="#ffffff" stroke-opacity="0.02" stroke-width="0.7"/><line x1="683.29" y1="522.07" x2="659.04" y2="541.09" stroke="#ffffff" stroke-opacity="0.04" stroke-width="0.7"/><line x1="464.64" y1="901.27" x2="436.37" y2="914.84" stroke="#ffffff" stroke-opacity="0.04" stroke-width="1.4"/><line x1="239.27" y1="224.78" x2="248.39" y2="227.83" stroke="#ffffff" stroke-opacity="0.04" stroke-width="1.42"/><line x1="44.07" y1="510.71" x2="20.81" y2="534.2" stroke="#ffffff" stroke-opacity="0" stroke-width="1.08"/><line x1="777.98" y1="578.07" x2="768.8" y2="585.6" stroke="#ffffff" stroke-opacity="0.01" stroke-width="0.69"/><line x1="677.68" y1="152.06" x2="686.55" y2="164.89" stroke="#ffffff" stroke-opacity="0.02" stroke-width="1.44"/><line x1="765" y1="911.57" x2="765.56" y2="917.78" stroke="#ffffff" stroke-opacity="0.03" stroke-width="0.61"/><line x1="43.61" y1="793.57" x2="55.64" y2="794.34" stroke="#ffffff" stroke-opacity="0.04" stroke-width="1.69"/><line x1="876.54" y1="722.52" x2="842.26" y2="723.85" stroke="#ffffff" stroke-opacity="0.02" stroke-width="0.67"/><line x1="444.34" y1="114.83" x2="476.19" y2="116.1" stroke="#ffffff" stroke-opacity="0.02" stroke-width="0.78"/><line x1="698.15" y1="416.4" x2="687.47" y2="443.64" stroke="#ffffff" stroke-opacity="0.05" stroke-width="0.84"/><line x1="264.16" y1="471.99" x2="240.75" y2="481.83" stroke="#ffffff" stroke-opacity="0.04" stroke-width="0.87"/><line x1="856.07" y1="990.5" x2="862.54" y2="1000.68" stroke="#ffffff" stroke-opacity="0.01" stroke-width="1.64"/><line x1="892.71" y1="343.78" x2="894.57" y2="368.46" stroke="#ffffff" stroke-opacity="0.02" stroke-width="1.04"/><line x1="329.45" y1="528.29" x2="324.66" y2="546.49" stroke="#ffffff" stroke-opacity="0.04" stroke-width="1"/><line x1="75.51" y1="599.4" x2="93.24" y2="614.49" stroke="#ffffff" stroke-opacity="0.05" stroke-width="1.47"/><line x1="517.02" y1="1018.87" x2="555.99" y2="1023.08" stroke="#ffffff" stroke-opacity="0.01" stroke-width="0.99"/><line x1="477.57" y1="755.91" x2="481.93" y2="768.35" stroke="#ffffff" stroke-opacity="0.02" stroke-width="0.96"/><line x1="856.53" y1="284.45" x2="872.47" y2="287.78" stroke="#ffffff" stroke-opacity="0.03" stroke-width="1.43"/><line x1="370.85" y1="663.23" x2="372.72" y2="695.68" stroke="#ffffff" stroke-opacity="0.02" stroke-width="0.9"/><line x1="720.52" y1="485.12" x2="755.47" y2="487.33" stroke="#ffffff" stroke-opacity="0.02" stroke-width="0.76"/><line x1="181.67" y1="739.23" x2="172.44" y2="747.64" stroke="#ffffff" stroke-opacity="0.04" stroke-width="1.32"/><line x1="36.79" y1="288.74" x2="23.21" y2="301.42" stroke="#ffffff" stroke-opacity="0" stroke-width="1.52"/><line x1="358.8" y1="290.23" x2="360.08" y2="297.17" stroke="#ffffff" stroke-opacity="0.04" stroke-width="1.55"/><line x1="306.95" y1="636.39" x2="294.13" y2="662.02" stroke="#ffffff" stroke-opacity="0.04" stroke-width="1.69"/><line x1="448.42" y1="890.18" x2="482.05" y2="898.78" stroke="#ffffff" stroke-opacity="0.01" stroke-width="1.66"/><line x1="721.63" y1="938.14" x2="744.5" y2="957.88" stroke="#ffffff" stroke-opacity="0.03" stroke-width="0.67"/><line x1="486.63" y1="502.96" x2="507.45" y2="523.74" stroke="#ffffff" stroke-opacity="0.03" stroke-width="1.03"/><line x1="495.7" y1="752.52" x2="520.55" y2="768.35" stroke="#ffffff" stroke-opacity="0.03" stroke-width="0.61"/><line x1="645.69" y1="198.12" x2="640.75" y2="229.55" stroke="#ffffff" stroke-opacity="0.05" stroke-width="0.98"/><line x1="771.85" y1="713.49" x2="775.32" y2="719.44" stroke="#ffffff" stroke-opacity="0.03" stroke-width="1.5"/><line x1="694.73" y1="423.31" x2="697.95" y2="435.36" stroke="#ffffff" stroke-opacity="0.04" stroke-width="1.59"/><line x1="566.25" y1="829.33" x2="547.17" y2="848.28" stroke="#ffffff" stroke-opacity="0.04" stroke-width="1.14"/><line x1="160.98" y1="988.97" x2="166.08" y2="1007.58" stroke="#ffffff" stroke-opacity="0.01" stroke-width="1.19"/><line x1="354.33" y1="690.23" x2="375.24" y2="712.82" stroke="#ffffff" stroke-opacity="0.05" stroke-width="1.05"/><line x1="302.42" y1="709.26" x2="279.39" y2="716" stroke="#ffffff" stroke-opacity="0.03" stroke-width="1.57"/><line x1="120.49" y1="221.93" x2="103.34" y2="227.7" stroke="#ffffff" stroke-opacity="0.02" stroke-width="1.35"/><line x1="227.78" y1="82.01" x2="231.49" y2="87.44" stroke="#ffffff" stroke-opacity="0.04" stroke-width="1.31"/><line x1="519.95" y1="905.34" x2="555.91" y2="915.58" stroke="#ffffff" stroke-opacity="0.03" stroke-width="0.71"/><line x1="424.87" y1="386.63" x2="430.88" y2="394.45" stroke="#ffffff" stroke-opacity="0.03" stroke-width="0.67"/><line x1="726.24" y1="456.26" x2="712.26" y2="481.73" stroke="#ffffff" stroke-opacity="0.03" stroke-width="1.23"/><line x1="183.14" y1="17.69" x2="161.09" y2="51.05" stroke="#ffffff" stroke-opacity="0.05" stroke-width="1.1"/><line x1="262.81" y1="892.39" x2="251.46" y2="896.23" stroke="#ffffff" stroke-opacity="0.02" stroke-width="0.89"/><line x1="821.38" y1="414.11" x2="784.35" y2="421.69" stroke="#ffffff" stroke-opacity="0.01" stroke-width="1.3"/><line x1="642.1" y1="922.62" x2="661.54" y2="942.05" stroke="#ffffff" stroke-opacity="0.05" stroke-width="1.53"/><line x1="756.6" y1="342.73" x2="766.83" y2="357.89" stroke="#ffffff" stroke-opacity="0.01" stroke-width="0.86"/><line x1="160.63" y1="280.69" x2="161.22" y2="290.48" stroke="#ffffff" stroke-opacity="0.01" stroke-width="1.19"/><line x1="174.87" y1="643.26" x2="179.53" y2="649.46" stroke="#ffffff" stroke-opacity="0.01" stroke-width="0.85"/><line x1="623.45" y1="789.46" x2="645.51" y2="814.2" stroke="#ffffff" stroke-opacity="0.02" stroke-width="1.49"/><line x1="890.27" y1="758.18" x2="866.13" y2="774.19" stroke="#ffffff" stroke-opacity="0.02" stroke-width="0.84"/><line x1="896.42" y1="484.6" x2="885.74" y2="516.64" stroke="#ffffff" stroke-opacity="0.02" stroke-width="0.65"/><line x1="702.62" y1="433.77" x2="716.67" y2="446.54" stroke="#ffffff" stroke-opacity="0.05" stroke-width="0.93"/><line x1="109.79" y1="981.21" x2="110.11" y2="999.21" stroke="#ffffff" stroke-opacity="0.04" stroke-width="1.04"/><line x1="690.2" y1="740.74" x2="698.96" y2="752.94" stroke="#ffffff" stroke-opacity="0.02" stroke-width="1.15"/><line x1="261.44" y1="300.94" x2="255.03" y2="305.46" stroke="#ffffff" stroke-opacity="0.05" stroke-width="1.41"/><line x1="898.23" y1="871.74" x2="905.43" y2="904.64" stroke="#ffffff" stroke-opacity="0.04" stroke-width="0.76"/><line x1="893.3" y1="64.28" x2="921.14" y2="89.91" stroke="#ffffff" stroke-opacity="0.03" stroke-width="0.96"/><line x1="609.03" y1="767.11" x2="639.2" y2="770.99" stroke="#ffffff" stroke-opacity="0.01" stroke-width="1.3"/><line x1="339.34" y1="804.53" x2="326.53" y2="814.19" stroke="#ffffff" stroke-opacity="0.04" stroke-width="1.41"/><line x1="704.94" y1="383.16" x2="681.51" y2="396.99" stroke="#ffffff" stroke-opacity="0.04" stroke-width="1.15"/><line x1="268.61" y1="457.13" x2="281.3" y2="469.38" stroke="#ffffff" stroke-opacity="0.04" stroke-width="0.75"/><line x1="459.8" y1="11.5" x2="484.69" y2="28.68" stroke="#ffffff" stroke-opacity="0.04" stroke-width="1.38"/><line x1="571.65" y1="47.86" x2="580.34" y2="71.37" stroke="#ffffff" stroke-opacity="0.02" stroke-width="1.44"/><line x1="220.02" y1="158.47" x2="231.33" y2="165.01" stroke="#ffffff" stroke-opacity="0.05" stroke-width="1.29"/><line x1="663.9" y1="340.54" x2="669.31" y2="343.99" stroke="#ffffff" stroke-opacity="0.01" stroke-width="1.14"/><line x1="61.11" y1="776.31" x2="56.98" y2="786.91" stroke="#ffffff" stroke-opacity="0.04" stroke-width="0.61"/><line x1="104.38" y1="136.88" x2="112.89" y2="137.18" stroke="#ffffff" stroke-opacity="0.02" stroke-width="1.3"/><line x1="30.61" y1="920.24" x2="28.92" y2="930.5" stroke="#ffffff" stroke-opacity="0.01" stroke-width="0.63"/><line x1="653.17" y1="1021.93" x2="644.45" y2="1037.54" stroke="#ffffff" stroke-opacity="0.02" stroke-width="1.06"/><line x1="613.48" y1="161.84" x2="594.08" y2="181.76" stroke="#ffffff" stroke-opacity="0.01" stroke-width="0.85"/><line x1="416.03" y1="6.92" x2="392.55" y2="26.82" stroke="#ffffff" stroke-opacity="0.01" stroke-width="1.5"/><line x1="480.65" y1="268.05" x2="501.3" y2="275.98" stroke="#ffffff" stroke-opacity="0" stroke-width="1.4"/><line x1="649.79" y1="1025.87" x2="618.7" y2="1040.93" stroke="#ffffff" stroke-opacity="0.01" stroke-width="1.29"/><line x1="506.95" y1="781.21" x2="507.18" y2="793.85" stroke="#ffffff" stroke-opacity="0.01" stroke-width="0.92"/><line x1="126.71" y1="574.76" x2="144.23" y2="580.76" stroke="#ffffff" stroke-opacity="0.05" stroke-width="0.62"/><line x1="769.12" y1="860.37" x2="753.83" y2="878.53" stroke="#ffffff" stroke-opacity="0.01" stroke-width="0.63"/><line x1="781.36" y1="508.68" x2="763.9" y2="544.22" stroke="#ffffff" stroke-opacity="0.02" stroke-width="1.61"/><line x1="859.97" y1="506.35" x2="872.5" y2="520.2" stroke="#ffffff" stroke-opacity="0.04" stroke-width="1.34"/><line x1="888.59" y1="720.75" x2="853.7" y2="729.02" stroke="#ffffff" stroke-opacity="0.02" stroke-width="1.6"/><line x1="579.59" y1="705.69" x2="559.07" y2="728.54" stroke="#ffffff" stroke-opacity="0.03" stroke-width="1.64"/><line x1="845.69" y1="607.14" x2="849.46" y2="614.5" stroke="#ffffff" stroke-opacity="0" stroke-width="1.31"/><line x1="89.52" y1="233.15" x2="61.9" y2="233.2" stroke="#ffffff" stroke-opacity="0.02" stroke-width="0.95"/><line x1="57.59" y1="517.12" x2="59.57" y2="525.88" stroke="#ffffff" stroke-opacity="0.05" stroke-width="1.5"/><line x1="640.89" y1="446.69" x2="635.14" y2="449.72" stroke="#ffffff" stroke-opacity="0.04" stroke-width="0.75"/><line x1="548.16" y1="799.36" x2="577.08" y2="800.68" stroke="#ffffff" stroke-opacity="0.03" stroke-width="0.86"/><line x1="12.42" y1="937.73" x2="17.4" y2="943.89" stroke="#ffffff" stroke-opacity="0.02" stroke-width="0.73"/><line x1="746.31" y1="416.42" x2="754.29" y2="437.64" stroke="#ffffff" stroke-opacity="0.04" stroke-width="1.22"/><line x1="419.17" y1="961.58" x2="399.96" y2="962.05" stroke="#ffffff" stroke-opacity="0.03" stroke-width="1.05"/><line x1="20.24" y1="433.76" x2="26.91" y2="440.95" stroke="#ffffff" stroke-opacity="0.04" stroke-width="1.44"/><line x1="78.05" y1="283.8" x2="76.06" y2="300.9" stroke="#ffffff" stroke-opacity="0.02" stroke-width="1.64"/><line x1="558.19" y1="504.04" x2="590.28" y2="506.67" stroke="#ffffff" stroke-opacity="0.03" stroke-width="0.94"/><line x1="141.07" y1="516.52" x2="162.18" y2="544.31" stroke="#ffffff" stroke-opacity="0.03" stroke-width="1.44"/><line x1="619.31" y1="322.18" x2="604.47" y2="342.54" stroke="#ffffff" stroke-opacity="0.05" stroke-width="1.3"/><line x1="432.11" y1="67.21" x2="438.91" y2="73.81" stroke="#ffffff" stroke-opacity="0.04" stroke-width="0.91"/><line x1="402.94" y1="840.89" x2="403.4" y2="851.84" stroke="#ffffff" stroke-opacity="0.03" stroke-width="1.15"/><line x1="848.28" y1="703.23" x2="874.78" y2="710.29" stroke="#ffffff" stroke-opacity="0" stroke-width="0.66"/><line x1="609.74" y1="293.11" x2="600.73" y2="296.02" stroke="#ffffff" stroke-opacity="0.02" stroke-width="0.85"/><line x1="311.8" y1="899.53" x2="329.6" y2="919.42" stroke="#ffffff" stroke-opacity="0.03" stroke-width="0.94"/><line x1="93.24" y1="844.18" x2="73.45" y2="857.35" stroke="#ffffff" stroke-opacity="0.03" stroke-width="1.52"/><line x1="683.24" y1="641.68" x2="652.25" y2="642.47" stroke="#ffffff" stroke-opacity="0.02" stroke-width="0.8"/><line x1="125.13" y1="913.03" x2="103.02" y2="917.83" stroke="#ffffff" stroke-opacity="0.05" stroke-width="1.39"/><line x1="772.19" y1="546.87" x2="794.21" y2="562.79" stroke="#ffffff" stroke-opacity="0.04" stroke-width="1.38"/><line x1="522.68" y1="784.35" x2="520.62" y2="805.93" stroke="#ffffff" stroke-opacity="0.05" stroke-width="0.97"/><line x1="6.16" y1="993.89" x2="38.13" y2="1003.53" stroke="#ffffff" stroke-opacity="0.02" stroke-width="1.5"/><line x1="111.94" y1="141.91" x2="115.81" y2="175.16" stroke="#ffffff" stroke-opacity="0.05" stroke-width="1.61"/><line x1="43.8" y1="27.74" x2="19.07" y2="45.72" stroke="#ffffff" stroke-opacity="0.01" stroke-width="1.61"/><line x1="724.89" y1="268.1" x2="695.86" y2="293.38" stroke="#ffffff" stroke-opacity="0.03" stroke-width="1.09"/><line x1="43.23" y1="346.92" x2="57.86" y2="352.31" stroke="#ffffff" stroke-opacity="0.02" stroke-width="1.46"/><line x1="654.22" y1="312.8" x2="662.95" y2="348.15" stroke="#ffffff" stroke-opacity="0.04" stroke-width="0.73"/><line x1="421.5" y1="28.06" x2="423.24" y2="63.47" stroke="#ffffff" stroke-opacity="0" stroke-width="1.66"/><line x1="614" y1="889.59" x2="607.14" y2="890.13" stroke="#ffffff" stroke-opacity="0.04" stroke-width="0.85"/><line x1="466.12" y1="380.9" x2="444.97" y2="410.44" stroke="#ffffff" stroke-opacity="0.05" stroke-width="1.52"/><line x1="479.75" y1="811.58" x2="499.37" y2="828.48" stroke="#ffffff" stroke-opacity="0.01" stroke-width="0.72"/><line x1="584.59" y1="971.3" x2="570.28" y2="977.24" stroke="#ffffff" stroke-opacity="0.04" stroke-width="1.61"/><line x1="406.35" y1="737.69" x2="415.61" y2="741.87" stroke="#ffffff" stroke-opacity="0.01" stroke-width="1.26"/><line x1="402.77" y1="328.27" x2="387.64" y2="342.87" stroke="#ffffff" stroke-opacity="0.05" stroke-width="0.85"/><line x1="347.25" y1="54.78" x2="341.14" y2="86.68" stroke="#ffffff" stroke-opacity="0.04" stroke-width="0.78"/><line x1="348.23" y1="587.75" x2="355.58" y2="615.13" stroke="#ffffff" stroke-opacity="0.02" stroke-width="1.5"/><line x1="323.35" y1="253.41" x2="316.67" y2="269.71" stroke="#ffffff" stroke-opacity="0.02" stroke-width="1.28"/><line x1="179.32" y1="218.08" x2="146.13" y2="235.5" stroke="#ffffff" stroke-opacity="0.02" stroke-width="1.27"/><line x1="415.02" y1="609.61" x2="403.95" y2="621.85" stroke="#ffffff" stroke-opacity="0.01" stroke-width="0.75"/><line x1="745.99" y1="268.89" x2="774.64" y2="273.91" stroke="#ffffff" stroke-opacity="0.03" stroke-width="0.88"/><line x1="575.72" y1="969.48" x2="570.86" y2="990.43" stroke="#ffffff" stroke-opacity="0.05" stroke-width="1.57"/><line x1="193.36" y1="593.42" x2="176.96" y2="627.85" stroke="#ffffff" stroke-opacity="0.04" stroke-width="1.33"/><line x1="590.67" y1="14.02" x2="582.93" y2="40.3" stroke="#ffffff" stroke-opacity="0" stroke-width="1.26"/><line x1="343.76" y1="712.91" x2="309.53" y2="715.34" stroke="#ffffff" stroke-opacity="0.04" stroke-width="1.07"/><line x1="728.9" y1="209.96" x2="702.51" y2="227.6" stroke="#ffffff" stroke-opacity="0.03" stroke-width="1.59"/><line x1="518.46" y1="754.07" x2="521.81" y2="774.77" stroke="#ffffff" stroke-opacity="0.01" stroke-width="0.83"/><line x1="262.26" y1="128.96" x2="245.66" y2="129.8" stroke="#ffffff" stroke-opacity="0.02" stroke-width="0.67"/>
  <!-- hair sits behind the body so the shoulder reads in front of it -->
  <path d="M 444.8 75.2 C 555.2 60.8 651.2 142.4 646.4 248 C 641.6 300.8 617.6 310.4 608 291.2 C 593.6 224 545.6 161.6 464 161.6 C 387.2 161.6 344 228.8 329.6 329.6 C 315.2 440 329.6 550.4 300.8 656 C 281.6 732.8 238.4 800 209.6 1040 L 80 1040 C 104 680 161.6 440 190.4 310.4 C 219.2 176 334.4 89.6 444.8 75.2 Z" fill="url(#p20260901-body)"/>
  <path d="M 440 80 C 550.4 72.8 632 152 641.6 257.6 C 646.4 310.4 632 329.6 651.2 348.8 C 665.6 363.2 641.6 372.8 636.8 392 C 632 416 646.4 430.4 627.2 444.8 C 612.8 456.8 584 459.2 564.8 464 C 550.4 488 555.2 521.6 545.6 550.4 C 536 584 507.2 593.6 454.4 612.8 C 377.6 639.2 315.2 684.8 281.6 766.4 L 281.6 1040 L 670.4 1040 C 670.4 680 617.6 622.4 564.8 593.6 C 521.6 569.6 502.4 536 497.6 492.8 C 444.8 464 401.6 387.2 406.4 291.2 C 411.2 185.6 401.6 94.4 440 80 Z" fill="url(#p20260901-body)"/>
  <g mask="url(#p20260901-figure)">
    <path d="M 425.6 132.8 C 536 84.8 632 152 641.6 257.6 C 646.4 310.4 632 329.6 651.2 348.8 C 665.6 363.2 641.6 372.8 636.8 392 C 632 416 646.4 430.4 627.2 444.8 C 612.8 456.8 584 459.2 564.8 464 C 550.4 488 555.2 521.6 545.6 550.4 C 536 584 507.2 593.6 454.4 612.8" fill="none" stroke="url(#p20260901-rim)" stroke-width="12"
          stroke-linecap="round" stroke-linejoin="round"/>
    <path d="M 425.6 132.8 C 536 84.8 632 152 641.6 257.6 C 646.4 310.4 632 329.6 651.2 348.8 C 665.6 363.2 641.6 372.8 636.8 392 C 632 416 646.4 430.4 627.2 444.8 C 612.8 456.8 584 459.2 564.8 464 C 550.4 488 555.2 521.6 545.6 550.4 C 536 584 507.2 593.6 454.4 612.8" fill="none" stroke="#8fc2ff" stroke-opacity="0.5" stroke-width="3.36"
          stroke-linecap="round" stroke-linejoin="round"/>
  </g>
</g>
</svg>
