<svg xmlns="http://www.w3.org/2000/svg" viewBox="0 0 900 1013" width="900" height="1013" role="img">
  <defs>
    <linearGradient id="ground" x1="0" y1="0" x2="0.35" y2="1">
      <stop offset="0" stop-color="#150809"/>
      <stop offset="0.5" stop-color="#0b0507"/>
      <stop offset="1" stop-color="#07070c"/>
    </linearGradient>
    <radialGradient id="halo" cx="0.5" cy="0.45" r="0.55">
      <stop offset="0" stop-color="#ff8a00" stop-opacity="0.34"/>
      <stop offset="0.45" stop-color="#fd321c" stop-opacity="0.16"/>
      <stop offset="1" stop-color="#fd321c" stop-opacity="0"/>
    </radialGradient>
    <linearGradient id="disc" x1="0.2" y1="0" x2="0.8" y2="1">
      <stop offset="0" stop-color="#20120f"/>
      <stop offset="0.55" stop-color="#12090b"/>
      <stop offset="1" stop-color="#0a0810"/>
    </linearGradient>
    <linearGradient id="burst" x1="0.15" y1="0" x2="0.85" y2="1">
      <stop offset="0" stop-color="#fff4dd"/>
      <stop offset="0.4" stop-color="#ff8a00"/>
      <stop offset="1" stop-color="#fd321c"/>
    </linearGradient>
    <linearGradient id="leaf" x1="0" y1="0" x2="1" y2="1">
      <stop offset="0" stop-color="#ff8a00"/>
      <stop offset="1" stop-color="#fd321c"/>
    </linearGradient>
    <linearGradient id="bandA" x1="0" y1="0" x2="0.4" y2="1">
      <stop offset="0" stop-color="#fd321c"/>
      <stop offset="1" stop-color="#8d1a08"/>
    </linearGradient>
    <linearGradient id="bandB" x1="1" y1="0" x2="0.6" y2="1">
      <stop offset="0" stop-color="#ff8a00"/>
      <stop offset="1" stop-color="#a33208"/>
    </linearGradient>
    <radialGradient id="vignette" cx="0.5" cy="0.45" r="0.66">
      <stop offset="0" stop-color="#000" stop-opacity="0"/>
      <stop offset="0.6" stop-color="#000" stop-opacity="0.12"/>
      <stop offset="0.85" stop-color="#000" stop-opacity="0.55"/>
      <stop offset="1" stop-color="#000" stop-opacity="0.88"/>
    </radialGradient>
  </defs>

  <rect width="900" height="1013" fill="url(#ground)"/>
  <circle cx="450" cy="460.9" r="539.4" fill="url(#halo)"/>

  <path d="M 440 586.2 L 376 586.2 L 328 979 L 366 935 L 404 979 Z" fill="url(#bandB)"/><path d="M 460 586.2 L 524 586.2 L 572 979 L 534 935 L 496 979 Z" fill="url(#bandA)"/>

  <circle cx="450" cy="460.9" r="348" fill="none" stroke="#f4f1ea" stroke-opacity="0.22" stroke-width="3"/>
  <line x1="450" y1="117.1" x2="450" y2="145.3" stroke="#fd321c" stroke-opacity="0.95" stroke-width="5" stroke-linecap="square"/><line x1="474" y1="117.9" x2="473.1" y2="131.1" stroke="#f4f1ea" stroke-opacity="0.42" stroke-width="2.5" stroke-linecap="square"/><line x1="497.9" y1="120.4" x2="496" y2="133.5" stroke="#f4f1ea" stroke-opacity="0.42" stroke-width="2.5" stroke-linecap="square"/><line x1="521.5" y1="124.6" x2="518.7" y2="137.5" stroke="#f4f1ea" stroke-opacity="0.42" stroke-width="2.5" stroke-linecap="square"/><line x1="544.8" y1="130.4" x2="541.1" y2="143.1" stroke="#f4f1ea" stroke-opacity="0.42" stroke-width="2.5" stroke-linecap="square"/><line x1="567.6" y1="137.8" x2="558" y2="164.3" stroke="#fd321c" stroke-opacity="0.95" stroke-width="5" stroke-linecap="square"/><line x1="589.8" y1="146.8" x2="584.5" y2="158.9" stroke="#f4f1ea" stroke-opacity="0.42" stroke-width="2.5" stroke-linecap="square"/><line x1="611.4" y1="157.3" x2="605.2" y2="169" stroke="#f4f1ea" stroke-opacity="0.42" stroke-width="2.5" stroke-linecap="square"/><line x1="632.2" y1="169.3" x2="625.2" y2="180.6" stroke="#f4f1ea" stroke-opacity="0.42" stroke-width="2.5" stroke-linecap="square"/><line x1="652.1" y1="182.8" x2="644.3" y2="193.5" stroke="#f4f1ea" stroke-opacity="0.42" stroke-width="2.5" stroke-linecap="square"/><line x1="671" y1="197.5" x2="652.9" y2="219.1" stroke="#fd321c" stroke-opacity="0.95" stroke-width="5" stroke-linecap="square"/><line x1="688.8" y1="213.6" x2="679.7" y2="223.1" stroke="#f4f1ea" stroke-opacity="0.42" stroke-width="2.5" stroke-linecap="square"/><line x1="705.5" y1="230.9" x2="695.7" y2="239.7" stroke="#f4f1ea" stroke-opacity="0.42" stroke-width="2.5" stroke-linecap="square"/><line x1="720.9" y1="249.2" x2="710.5" y2="257.4" stroke="#f4f1ea" stroke-opacity="0.42" stroke-width="2.5" stroke-linecap="square"/><line x1="735" y1="268.7" x2="724.1" y2="276" stroke="#f4f1ea" stroke-opacity="0.42" stroke-width="2.5" stroke-linecap="square"/><line x1="747.8" y1="289" x2="723.3" y2="303.1" stroke="#fd321c" stroke-opacity="0.95" stroke-width="5" stroke-linecap="square"/><line x1="759" y1="310.2" x2="747.1" y2="316" stroke="#f4f1ea" stroke-opacity="0.42" stroke-width="2.5" stroke-linecap="square"/><line x1="768.8" y1="332.1" x2="756.5" y2="337.1" stroke="#f4f1ea" stroke-opacity="0.42" stroke-width="2.5" stroke-linecap="square"/><line x1="777" y1="354.7" x2="764.4" y2="358.8" stroke="#f4f1ea" stroke-opacity="0.42" stroke-width="2.5" stroke-linecap="square"/><line x1="783.6" y1="377.7" x2="770.8" y2="380.9" stroke="#f4f1ea" stroke-opacity="0.42" stroke-width="2.5" stroke-linecap="square"/><line x1="788.6" y1="401.2" x2="760.8" y2="406.1" stroke="#fd321c" stroke-opacity="0.95" stroke-width="5" stroke-linecap="square"/><line x1="791.9" y1="425" x2="778.8" y2="426.4" stroke="#f4f1ea" stroke-opacity="0.42" stroke-width="2.5" stroke-linecap="square"/><line x1="793.6" y1="448.9" x2="780.4" y2="449.4" stroke="#f4f1ea" stroke-opacity="0.42" stroke-width="2.5" stroke-linecap="square"/><line x1="793.6" y1="472.9" x2="780.4" y2="472.5" stroke="#f4f1ea" stroke-opacity="0.42" stroke-width="2.5" stroke-linecap="square"/><line x1="791.9" y1="496.9" x2="778.8" y2="495.5" stroke="#f4f1ea" stroke-opacity="0.42" stroke-width="2.5" stroke-linecap="square"/><line x1="788.6" y1="520.6" x2="760.8" y2="515.7" stroke="#fd321c" stroke-opacity="0.95" stroke-width="5" stroke-linecap="square"/><line x1="783.6" y1="544.1" x2="770.8" y2="540.9" stroke="#f4f1ea" stroke-opacity="0.42" stroke-width="2.5" stroke-linecap="square"/><line x1="777" y1="567.2" x2="764.4" y2="563.1" stroke="#f4f1ea" stroke-opacity="0.42" stroke-width="2.5" stroke-linecap="square"/><line x1="768.8" y1="589.7" x2="756.5" y2="584.8" stroke="#f4f1ea" stroke-opacity="0.42" stroke-width="2.5" stroke-linecap="square"/><line x1="759" y1="611.6" x2="747.1" y2="605.8" stroke="#f4f1ea" stroke-opacity="0.42" stroke-width="2.5" stroke-linecap="square"/><line x1="747.8" y1="632.8" x2="723.3" y2="618.7" stroke="#fd321c" stroke-opacity="0.95" stroke-width="5" stroke-linecap="square"/><line x1="735" y1="653.2" x2="724.1" y2="645.8" stroke="#f4f1ea" stroke-opacity="0.42" stroke-width="2.5" stroke-linecap="square"/><line x1="720.9" y1="672.6" x2="710.5" y2="664.5" stroke="#f4f1ea" stroke-opacity="0.42" stroke-width="2.5" stroke-linecap="square"/><line x1="705.5" y1="691" x2="695.7" y2="682.1" stroke="#f4f1ea" stroke-opacity="0.42" stroke-width="2.5" stroke-linecap="square"/><line x1="688.8" y1="708.2" x2="679.7" y2="698.7" stroke="#f4f1ea" stroke-opacity="0.42" stroke-width="2.5" stroke-linecap="square"/><line x1="671" y1="724.3" x2="652.9" y2="702.7" stroke="#fd321c" stroke-opacity="0.95" stroke-width="5" stroke-linecap="square"/><line x1="652.1" y1="739.1" x2="644.3" y2="728.4" stroke="#f4f1ea" stroke-opacity="0.42" stroke-width="2.5" stroke-linecap="square"/><line x1="632.2" y1="752.5" x2="625.2" y2="741.3" stroke="#f4f1ea" stroke-opacity="0.42" stroke-width="2.5" stroke-linecap="square"/><line x1="611.4" y1="764.5" x2="605.2" y2="752.8" stroke="#f4f1ea" stroke-opacity="0.42" stroke-width="2.5" stroke-linecap="square"/><line x1="589.8" y1="775" x2="584.5" y2="762.9" stroke="#f4f1ea" stroke-opacity="0.42" stroke-width="2.5" stroke-linecap="square"/><line x1="567.6" y1="784" x2="558" y2="757.5" stroke="#fd321c" stroke-opacity="0.95" stroke-width="5" stroke-linecap="square"/><line x1="544.8" y1="791.4" x2="541.1" y2="778.7" stroke="#f4f1ea" stroke-opacity="0.42" stroke-width="2.5" stroke-linecap="square"/><line x1="521.5" y1="797.2" x2="518.7" y2="784.3" stroke="#f4f1ea" stroke-opacity="0.42" stroke-width="2.5" stroke-linecap="square"/><line x1="497.9" y1="801.4" x2="496" y2="788.3" stroke="#f4f1ea" stroke-opacity="0.42" stroke-width="2.5" stroke-linecap="square"/><line x1="474" y1="803.9" x2="473.1" y2="790.7" stroke="#f4f1ea" stroke-opacity="0.42" stroke-width="2.5" stroke-linecap="square"/><line x1="450" y1="804.7" x2="450" y2="776.6" stroke="#fd321c" stroke-opacity="0.95" stroke-width="5" stroke-linecap="square"/><line x1="426" y1="803.9" x2="426.9" y2="790.7" stroke="#f4f1ea" stroke-opacity="0.42" stroke-width="2.5" stroke-linecap="square"/><line x1="402.1" y1="801.4" x2="404" y2="788.3" stroke="#f4f1ea" stroke-opacity="0.42" stroke-width="2.5" stroke-linecap="square"/><line x1="378.5" y1="797.2" x2="381.3" y2="784.3" stroke="#f4f1ea" stroke-opacity="0.42" stroke-width="2.5" stroke-linecap="square"/><line x1="355.2" y1="791.4" x2="358.9" y2="778.7" stroke="#f4f1ea" stroke-opacity="0.42" stroke-width="2.5" stroke-linecap="square"/><line x1="332.4" y1="784" x2="342" y2="757.5" stroke="#fd321c" stroke-opacity="0.95" stroke-width="5" stroke-linecap="square"/><line x1="310.2" y1="775" x2="315.5" y2="762.9" stroke="#f4f1ea" stroke-opacity="0.42" stroke-width="2.5" stroke-linecap="square"/><line x1="288.6" y1="764.5" x2="294.8" y2="752.8" stroke="#f4f1ea" stroke-opacity="0.42" stroke-width="2.5" stroke-linecap="square"/><line x1="267.8" y1="752.5" x2="274.8" y2="741.3" stroke="#f4f1ea" stroke-opacity="0.42" stroke-width="2.5" stroke-linecap="square"/><line x1="247.9" y1="739.1" x2="255.7" y2="728.4" stroke="#f4f1ea" stroke-opacity="0.42" stroke-width="2.5" stroke-linecap="square"/><line x1="229" y1="724.3" x2="247.1" y2="702.7" stroke="#fd321c" stroke-opacity="0.95" stroke-width="5" stroke-linecap="square"/><line x1="211.2" y1="708.2" x2="220.3" y2="698.7" stroke="#f4f1ea" stroke-opacity="0.42" stroke-width="2.5" stroke-linecap="square"/><line x1="194.5" y1="691" x2="204.3" y2="682.1" stroke="#f4f1ea" stroke-opacity="0.42" stroke-width="2.5" stroke-linecap="square"/><line x1="179.1" y1="672.6" x2="189.5" y2="664.5" stroke="#f4f1ea" stroke-opacity="0.42" stroke-width="2.5" stroke-linecap="square"/><line x1="165" y1="653.2" x2="175.9" y2="645.8" stroke="#f4f1ea" stroke-opacity="0.42" stroke-width="2.5" stroke-linecap="square"/><line x1="152.2" y1="632.8" x2="176.7" y2="618.7" stroke="#fd321c" stroke-opacity="0.95" stroke-width="5" stroke-linecap="square"/><line x1="141" y1="611.6" x2="152.9" y2="605.8" stroke="#f4f1ea" stroke-opacity="0.42" stroke-width="2.5" stroke-linecap="square"/><line x1="131.2" y1="589.7" x2="143.5" y2="584.8" stroke="#f4f1ea" stroke-opacity="0.42" stroke-width="2.5" stroke-linecap="square"/><line x1="123" y1="567.2" x2="135.6" y2="563.1" stroke="#f4f1ea" stroke-opacity="0.42" stroke-width="2.5" stroke-linecap="square"/><line x1="116.4" y1="544.1" x2="129.2" y2="540.9" stroke="#f4f1ea" stroke-opacity="0.42" stroke-width="2.5" stroke-linecap="square"/><line x1="111.4" y1="520.6" x2="139.2" y2="515.7" stroke="#fd321c" stroke-opacity="0.95" stroke-width="5" stroke-linecap="square"/><line x1="108.1" y1="496.9" x2="121.2" y2="495.5" stroke="#f4f1ea" stroke-opacity="0.42" stroke-width="2.5" stroke-linecap="square"/><line x1="106.4" y1="472.9" x2="119.6" y2="472.5" stroke="#f4f1ea" stroke-opacity="0.42" stroke-width="2.5" stroke-linecap="square"/><line x1="106.4" y1="448.9" x2="119.6" y2="449.4" stroke="#f4f1ea" stroke-opacity="0.42" stroke-width="2.5" stroke-linecap="square"/><line x1="108.1" y1="425" x2="121.2" y2="426.4" stroke="#f4f1ea" stroke-opacity="0.42" stroke-width="2.5" stroke-linecap="square"/><line x1="111.4" y1="401.2" x2="139.2" y2="406.1" stroke="#fd321c" stroke-opacity="0.95" stroke-width="5" stroke-linecap="square"/><line x1="116.4" y1="377.7" x2="129.2" y2="380.9" stroke="#f4f1ea" stroke-opacity="0.42" stroke-width="2.5" stroke-linecap="square"/><line x1="123" y1="354.7" x2="135.6" y2="358.8" stroke="#f4f1ea" stroke-opacity="0.42" stroke-width="2.5" stroke-linecap="square"/><line x1="131.2" y1="332.1" x2="143.5" y2="337.1" stroke="#f4f1ea" stroke-opacity="0.42" stroke-width="2.5" stroke-linecap="square"/><line x1="141" y1="310.2" x2="152.9" y2="316" stroke="#f4f1ea" stroke-opacity="0.42" stroke-width="2.5" stroke-linecap="square"/><line x1="152.2" y1="289" x2="176.7" y2="303.1" stroke="#fd321c" stroke-opacity="0.95" stroke-width="5" stroke-linecap="square"/><line x1="165" y1="268.7" x2="175.9" y2="276" stroke="#f4f1ea" stroke-opacity="0.42" stroke-width="2.5" stroke-linecap="square"/><line x1="179.1" y1="249.2" x2="189.5" y2="257.4" stroke="#f4f1ea" stroke-opacity="0.42" stroke-width="2.5" stroke-linecap="square"/><line x1="194.5" y1="230.9" x2="204.3" y2="239.7" stroke="#f4f1ea" stroke-opacity="0.42" stroke-width="2.5" stroke-linecap="square"/><line x1="211.2" y1="213.6" x2="220.3" y2="223.1" stroke="#f4f1ea" stroke-opacity="0.42" stroke-width="2.5" stroke-linecap="square"/><line x1="229" y1="197.5" x2="247.1" y2="219.1" stroke="#fd321c" stroke-opacity="0.95" stroke-width="5" stroke-linecap="square"/><line x1="247.9" y1="182.8" x2="255.7" y2="193.5" stroke="#f4f1ea" stroke-opacity="0.42" stroke-width="2.5" stroke-linecap="square"/><line x1="267.8" y1="169.3" x2="274.8" y2="180.6" stroke="#f4f1ea" stroke-opacity="0.42" stroke-width="2.5" stroke-linecap="square"/><line x1="288.6" y1="157.3" x2="294.8" y2="169" stroke="#f4f1ea" stroke-opacity="0.42" stroke-width="2.5" stroke-linecap="square"/><line x1="310.2" y1="146.8" x2="315.5" y2="158.9" stroke="#f4f1ea" stroke-opacity="0.42" stroke-width="2.5" stroke-linecap="square"/><line x1="332.4" y1="137.8" x2="342" y2="164.3" stroke="#fd321c" stroke-opacity="0.95" stroke-width="5" stroke-linecap="square"/><line x1="355.2" y1="130.4" x2="358.9" y2="143.1" stroke="#f4f1ea" stroke-opacity="0.42" stroke-width="2.5" stroke-linecap="square"/><line x1="378.5" y1="124.6" x2="381.3" y2="137.5" stroke="#f4f1ea" stroke-opacity="0.42" stroke-width="2.5" stroke-linecap="square"/><line x1="402.1" y1="120.4" x2="404" y2="133.5" stroke="#f4f1ea" stroke-opacity="0.42" stroke-width="2.5" stroke-linecap="square"/><line x1="426" y1="117.9" x2="426.9" y2="131.1" stroke="#f4f1ea" stroke-opacity="0.42" stroke-width="2.5" stroke-linecap="square"/>
  <circle cx="450" cy="460.9" r="305.5" fill="none" stroke="#fd321c" stroke-opacity="0.75" stroke-width="6"/>

  <path d="M -35.5 0 Q 0 -12.9 35.5 0 Q 0 12.9 -35.5 0 Z" fill="url(#leaf)" opacity="0.92" transform="translate(503.2 711.1) rotate(198)"/><path d="M -34.6 0 Q 0 -12.6 34.6 0 Q 0 12.6 -34.6 0 Z" fill="url(#leaf)" opacity="0.90" transform="translate(547.5 699.9) rotate(187.8)"/><path d="M -33.7 0 Q 0 -12.3 33.7 0 Q 0 12.3 -33.7 0 Z" fill="url(#leaf)" opacity="0.89" transform="translate(589.3 680.8) rotate(177.6)"/><path d="M -32.8 0 Q 0 -12 32.8 0 Q 0 12 -32.8 0 Z" fill="url(#leaf)" opacity="0.87" transform="translate(627.2 654) rotate(167.5)"/><path d="M -32 0 Q 0 -11.7 32 0 Q 0 11.7 -32 0 Z" fill="url(#leaf)" opacity="0.85" transform="translate(659.6 620.4) rotate(157.3)"/><path d="M -31.1 0 Q 0 -11.5 31.1 0 Q 0 11.5 -31.1 0 Z" fill="url(#leaf)" opacity="0.84" transform="translate(685.1 581.2) rotate(147.1)"/><path d="M -30.2 0 Q 0 -11.2 30.2 0 Q 0 11.2 -30.2 0 Z" fill="url(#leaf)" opacity="0.82" transform="translate(702.6 537.7) rotate(136.9)"/><path d="M -29.3 0 Q 0 -10.9 29.3 0 Q 0 10.9 -29.3 0 Z" fill="url(#leaf)" opacity="0.81" transform="translate(711.6 491.8) rotate(126.7)"/><path d="M -28.4 0 Q 0 -10.6 28.4 0 Q 0 10.6 -28.4 0 Z" fill="url(#leaf)" opacity="0.79" transform="translate(711.6 445.1) rotate(116.5)"/><path d="M -27.5 0 Q 0 -10.3 27.5 0 Q 0 10.3 -27.5 0 Z" fill="url(#leaf)" opacity="0.77" transform="translate(703 399.5) rotate(106.4)"/><path d="M -26.6 0 Q 0 -10 26.6 0 Q 0 10 -26.6 0 Z" fill="url(#leaf)" opacity="0.76" transform="translate(686.1 356.7) rotate(96.2)"/><path d="M -25.8 0 Q 0 -9.7 25.8 0 Q 0 9.7 -25.8 0 Z" fill="url(#leaf)" opacity="0.74" transform="translate(662.1 317.9) rotate(86)"/><path d="M 503.2 711.1 A 255.8 255.8 0 0 0 662.1 317.9" fill="none" stroke="#fd321c" stroke-opacity="0.45" stroke-width="3"/>
  <path d="M -35.5 0 Q 0 -12.9 35.5 0 Q 0 12.9 -35.5 0 Z" fill="url(#leaf)" opacity="0.92" transform="translate(396.8 711.1) rotate(162)"/><path d="M -34.6 0 Q 0 -12.6 34.6 0 Q 0 12.6 -34.6 0 Z" fill="url(#leaf)" opacity="0.90" transform="translate(352.5 699.9) rotate(172.2)"/><path d="M -33.7 0 Q 0 -12.3 33.7 0 Q 0 12.3 -33.7 0 Z" fill="url(#leaf)" opacity="0.89" transform="translate(310.7 680.8) rotate(182.4)"/><path d="M -32.8 0 Q 0 -12 32.8 0 Q 0 12 -32.8 0 Z" fill="url(#leaf)" opacity="0.87" transform="translate(272.8 654) rotate(192.5)"/><path d="M -32 0 Q 0 -11.7 32 0 Q 0 11.7 -32 0 Z" fill="url(#leaf)" opacity="0.85" transform="translate(240.4 620.4) rotate(202.7)"/><path d="M -31.1 0 Q 0 -11.5 31.1 0 Q 0 11.5 -31.1 0 Z" fill="url(#leaf)" opacity="0.84" transform="translate(214.9 581.2) rotate(212.9)"/><path d="M -30.2 0 Q 0 -11.2 30.2 0 Q 0 11.2 -30.2 0 Z" fill="url(#leaf)" opacity="0.82" transform="translate(197.4 537.7) rotate(223.1)"/><path d="M -29.3 0 Q 0 -10.9 29.3 0 Q 0 10.9 -29.3 0 Z" fill="url(#leaf)" opacity="0.81" transform="translate(188.4 491.8) rotate(233.3)"/><path d="M -28.4 0 Q 0 -10.6 28.4 0 Q 0 10.6 -28.4 0 Z" fill="url(#leaf)" opacity="0.79" transform="translate(188.4 445.1) rotate(243.5)"/><path d="M -27.5 0 Q 0 -10.3 27.5 0 Q 0 10.3 -27.5 0 Z" fill="url(#leaf)" opacity="0.77" transform="translate(197 399.5) rotate(253.6)"/><path d="M -26.6 0 Q 0 -10 26.6 0 Q 0 10 -26.6 0 Z" fill="url(#leaf)" opacity="0.76" transform="translate(213.9 356.7) rotate(263.8)"/><path d="M -25.8 0 Q 0 -9.7 25.8 0 Q 0 9.7 -25.8 0 Z" fill="url(#leaf)" opacity="0.74" transform="translate(237.9 317.9) rotate(274)"/><path d="M 396.8 711.1 A 255.8 255.8 0 0 1 237.9 317.9" fill="none" stroke="#fd321c" stroke-opacity="0.45" stroke-width="3"/>

  <circle cx="450" cy="460.9" r="208.8" fill="url(#disc)" stroke="#f4f1ea" stroke-opacity="0.3" stroke-width="2"/>
  <circle cx="450" cy="460.9" r="184.4" fill="none" stroke="#ff8a00" stroke-opacity="0.35" stroke-width="1.5"/>
  <polygon points="450 307.8 471.1 410 517.1 393.8 500.9 439.8 603.1 460.9 500.9 482 517.1 528 471.1 511.8 450 614 428.9 511.8 382.9 528 399.1 482 296.9 460.9 399.1 439.8 382.9 393.8 428.9 410" fill="url(#burst)"/>
  <circle cx="450" cy="460.9" r="14" fill="#0b0507" stroke="#f4f1ea" stroke-opacity="0.7" stroke-width="2"/>

  <rect width="900" height="1013" fill="url(#vignette)"/>
</svg>