<svg xmlns="http://www.w3.org/2000/svg" viewBox="0 0 1200 800" width="1200" height="800" role="img">

  <defs>
    <radialGradient id="bloomcover03svg">
      <stop offset="0" stop-color="#ff8a00" stop-opacity="0.95"/>
      <stop offset="0.45" stop-color="#fd321c" stop-opacity="0.7"/>
      <stop offset="1" stop-color="#fd321c" stop-opacity="0"/>
    </radialGradient>
    <linearGradient id="sweepcover03svg" x1="0" y1="0" x2="1" y2="1">
      <stop offset="0" stop-color="#8f1405"/>
      <stop offset="0.55" stop-color="#fd321c"/>
      <stop offset="1" stop-color="#ff8a00"/>
    </linearGradient>
  </defs>
  <rect width="1200" height="800" fill="#0a0a0b"/>
<rect width="1200" height="800" fill="#0a0a0c"/><ellipse cx="424.7" cy="344.4" rx="504" ry="320" fill="url(#bloomcover03svg)" opacity="0.62"/><rect x="0" y="236.5" width="29.3" height="188" rx="2" fill="#fff" opacity="0.092"/><rect x="33.3" y="195.1" width="29.3" height="613.6" rx="2" fill="#fd321c" opacity="0.92"/><rect x="66.7" y="290.5" width="29.3" height="374.9" rx="2" fill="#fff" opacity="0.053"/><rect x="100" y="343.6" width="29.3" height="222" rx="2" fill="#fd321c" opacity="0.92"/><rect x="133.3" y="260.4" width="29.3" height="304.4" rx="2" fill="#fff" opacity="0.075"/><rect x="166.7" y="124.2" width="29.3" height="382.7" rx="2" fill="#fff" opacity="0.069"/><rect x="200" y="75" width="29.3" height="431.1" rx="2" fill="#fff" opacity="0.177"/><rect x="233.3" y="196.1" width="29.3" height="409.6" rx="2" fill="#fff" opacity="0.174"/><rect x="266.7" y="291.7" width="29.3" height="116.7" rx="2" fill="#fff" opacity="0.205"/><rect x="300" y="218.9" width="29.3" height="401.2" rx="2" fill="#fff" opacity="0.194"/><rect x="333.3" y="314.6" width="29.3" height="386.6" rx="2" fill="#fff" opacity="0.088"/><rect x="366.7" y="79" width="29.3" height="583" rx="2" fill="#fd321c" opacity="0.92"/><rect x="400" y="251.7" width="29.3" height="444.3" rx="2" fill="#fff" opacity="0.063"/><rect x="433.3" y="140.2" width="29.3" height="519.7" rx="2" fill="#fff" opacity="0.076"/><rect x="466.7" y="228.7" width="29.3" height="523.5" rx="2" fill="#fff" opacity="0.077"/><rect x="500" y="225" width="29.3" height="524.8" rx="2" fill="#fd321c" opacity="0.92"/><rect x="533.3" y="130" width="29.3" height="382.2" rx="2" fill="#fff" opacity="0.158"/><rect x="566.7" y="233.4" width="29.3" height="462.6" rx="2" fill="#fff" opacity="0.098"/><rect x="600" y="219.6" width="29.3" height="142.6" rx="2" fill="#fff" opacity="0.140"/><rect x="633.3" y="319.8" width="29.3" height="357" rx="2" fill="#fff" opacity="0.175"/><rect x="666.7" y="44.7" width="29.3" height="687.3" rx="2" fill="#fff" opacity="0.157"/><rect x="700" y="158.6" width="29.3" height="380.8" rx="2" fill="#fd321c" opacity="0.92"/><rect x="733.3" y="131" width="29.3" height="426" rx="2" fill="#fff" opacity="0.106"/><rect x="766.7" y="294.8" width="29.3" height="373" rx="2" fill="#fd321c" opacity="0.92"/><rect x="800" y="234.1" width="29.3" height="158.1" rx="2" fill="#fff" opacity="0.202"/><rect x="833.3" y="196.9" width="29.3" height="508.8" rx="2" fill="#fff" opacity="0.078"/><rect x="866.7" y="32.3" width="29.3" height="514.3" rx="2" fill="#fff" opacity="0.200"/><rect x="900" y="425.6" width="29.3" height="144.6" rx="2" fill="#fff" opacity="0.086"/><rect x="933.3" y="224" width="29.3" height="216.6" rx="2" fill="#fff" opacity="0.199"/><rect x="966.7" y="35" width="29.3" height="610.3" rx="2" fill="#fff" opacity="0.177"/><rect x="1000" y="114.8" width="29.3" height="501.5" rx="2" fill="#fff" opacity="0.124"/><rect x="1033.3" y="101.1" width="29.3" height="547.9" rx="2" fill="#fff" opacity="0.120"/><rect x="1066.7" y="381.5" width="29.3" height="197.6" rx="2" fill="#fff" opacity="0.180"/><rect x="1100" y="332.2" width="29.3" height="138" rx="2" fill="#fd321c" opacity="0.92"/><rect x="1133.3" y="82.1" width="29.3" height="682.7" rx="2" fill="#fff" opacity="0.206"/><rect x="1166.7" y="22.4" width="29.3" height="629.2" rx="2" fill="#fff" opacity="0.060"/>
</svg>