<svg xmlns="http://www.w3.org/2000/svg" viewBox="0 0 900 1202" width="900" height="1202" role="img">

  <defs>
    <radialGradient id="bloomplay02svg">
      <stop offset="0" stop-color="#ff8a00" stop-opacity="0.95"/>
      <stop offset="0.45" stop-color="#fd321c" stop-opacity="0.7"/>
      <stop offset="1" stop-color="#fd321c" stop-opacity="0"/>
    </radialGradient>
    <linearGradient id="sweepplay02svg" x1="0" y1="0" x2="1" y2="1">
      <stop offset="0" stop-color="#8f1405"/>
      <stop offset="0.55" stop-color="#fd321c"/>
      <stop offset="1" stop-color="#ff8a00"/>
    </linearGradient>
  </defs>
  <defs>
    <linearGradient id="scanplay02svg" x1="0" y1="0" x2="0" y2="1">
      <stop offset="0" stop-color="#fff" stop-opacity="0"/>
      <stop offset="0.5" stop-color="#fff" stop-opacity="0.09"/>
      <stop offset="1" stop-color="#fff" stop-opacity="0"/>
    </linearGradient>
  </defs>
  <style>
    .breathe { transform-origin: 50% 50%; animation: breathe 7s ease-in-out infinite alternate; }
    @keyframes breathe {
      from { transform: scale(1.015) translate(-0.6%, 0.4%); }
      to   { transform: scale(1.055) translate(0.6%, -0.6%); }
    }
    .scan { animation: scan 3.4s linear infinite; }
    @keyframes scan {
      from { transform: translateY(-420.7px); }
      to   { transform: translateY(1262.1px); }
    }
  </style>
  <rect width="900" height="1202" fill="#0a0a0b"/>
  <g class="breathe">
<rect width="900" height="553" fill="#0c0c10"/><ellipse cx="509.8" cy="553" rx="405" ry="240.4" fill="url(#bloomplay02svg)" opacity="0.95"/><rect y="553" width="900" height="649" fill="#08080a"/><line x1="509.8" y1="553" x2="-1218.2" y2="1202" stroke="#fff" stroke-opacity="0.12" stroke-width="1"/><line x1="509.8" y1="553" x2="-1074.2" y2="1202" stroke="#fff" stroke-opacity="0.12" stroke-width="1"/><line x1="509.8" y1="553" x2="-930.2" y2="1202" stroke="#fff" stroke-opacity="0.12" stroke-width="1"/><line x1="509.8" y1="553" x2="-786.2" y2="1202" stroke="#fff" stroke-opacity="0.12" stroke-width="1"/><line x1="509.8" y1="553" x2="-642.2" y2="1202" stroke="#fff" stroke-opacity="0.12" stroke-width="1"/><line x1="509.8" y1="553" x2="-498.2" y2="1202" stroke="#fff" stroke-opacity="0.12" stroke-width="1"/><line x1="509.8" y1="553" x2="-354.2" y2="1202" stroke="#fff" stroke-opacity="0.12" stroke-width="1"/><line x1="509.8" y1="553" x2="-210.2" y2="1202" stroke="#fff" stroke-opacity="0.12" stroke-width="1"/><line x1="509.8" y1="553" x2="-66.2" y2="1202" stroke="#fff" stroke-opacity="0.12" stroke-width="1"/><line x1="509.8" y1="553" x2="77.8" y2="1202" stroke="#fff" stroke-opacity="0.12" stroke-width="1"/><line x1="509.8" y1="553" x2="221.8" y2="1202" stroke="#fff" stroke-opacity="0.12" stroke-width="1"/><line x1="509.8" y1="553" x2="365.8" y2="1202" stroke="#fff" stroke-opacity="0.12" stroke-width="1"/><line x1="509.8" y1="553" x2="509.8" y2="1202" stroke="#fff" stroke-opacity="0.3" stroke-width="1"/><line x1="509.8" y1="553" x2="653.8" y2="1202" stroke="#fff" stroke-opacity="0.12" stroke-width="1"/><line x1="509.8" y1="553" x2="797.8" y2="1202" stroke="#fff" stroke-opacity="0.12" stroke-width="1"/><line x1="509.8" y1="553" x2="941.8" y2="1202" stroke="#fff" stroke-opacity="0.12" stroke-width="1"/><line x1="509.8" y1="553" x2="1085.8" y2="1202" stroke="#fff" stroke-opacity="0.12" stroke-width="1"/><line x1="509.8" y1="553" x2="1229.8" y2="1202" stroke="#fff" stroke-opacity="0.12" stroke-width="1"/><line x1="509.8" y1="553" x2="1373.8" y2="1202" stroke="#fff" stroke-opacity="0.12" stroke-width="1"/><line x1="509.8" y1="553" x2="1517.8" y2="1202" stroke="#fff" stroke-opacity="0.12" stroke-width="1"/><line x1="509.8" y1="553" x2="1661.8" y2="1202" stroke="#fff" stroke-opacity="0.12" stroke-width="1"/><line x1="509.8" y1="553" x2="1805.8" y2="1202" stroke="#fff" stroke-opacity="0.12" stroke-width="1"/><line x1="509.8" y1="553" x2="1949.8" y2="1202" stroke="#fff" stroke-opacity="0.12" stroke-width="1"/><line x1="509.8" y1="553" x2="2093.8" y2="1202" stroke="#fff" stroke-opacity="0.12" stroke-width="1"/><line x1="509.8" y1="553" x2="2237.8" y2="1202" stroke="#fff" stroke-opacity="0.12" stroke-width="1"/><line x1="0" y1="555.5" x2="900" y2="555.5" stroke="#fff" stroke-opacity="0.14" stroke-width="1"/><line x1="0" y1="563.9" x2="900" y2="563.9" stroke="#fff" stroke-opacity="0.14" stroke-width="1"/><line x1="0" y1="578.5" x2="900" y2="578.5" stroke="#fff" stroke-opacity="0.14" stroke-width="1"/><line x1="0" y1="599.7" x2="900" y2="599.7" stroke="#fff" stroke-opacity="0.14" stroke-width="1"/><line x1="0" y1="627.6" x2="900" y2="627.6" stroke="#fd321c" stroke-opacity="0.5" stroke-width="1"/><line x1="0" y1="662.5" x2="900" y2="662.5" stroke="#fff" stroke-opacity="0.14" stroke-width="1"/><line x1="0" y1="704.3" x2="900" y2="704.3" stroke="#fff" stroke-opacity="0.14" stroke-width="1"/><line x1="0" y1="753.4" x2="900" y2="753.4" stroke="#fff" stroke-opacity="0.14" stroke-width="1"/><line x1="0" y1="809.6" x2="900" y2="809.6" stroke="#fff" stroke-opacity="0.14" stroke-width="1"/><line x1="0" y1="873.1" x2="900" y2="873.1" stroke="#fd321c" stroke-opacity="0.5" stroke-width="1"/><line x1="0" y1="944.1" x2="900" y2="944.1" stroke="#fff" stroke-opacity="0.14" stroke-width="1"/><line x1="0" y1="1022.5" x2="900" y2="1022.5" stroke="#fff" stroke-opacity="0.14" stroke-width="1"/><line x1="0" y1="1108.5" x2="900" y2="1108.5" stroke="#fff" stroke-opacity="0.14" stroke-width="1"/><line x1="0" y1="1202" x2="900" y2="1202" stroke="#fff" stroke-opacity="0.14" stroke-width="1"/>
  </g>
  <rect class="scan" width="900" height="360.6" fill="url(#scanplay02svg)"/>
</svg>