<svg xmlns="http://www.w3.org/2000/svg" viewBox="0 0 900 1100" width="900" height="1100" role="img">

  <defs>
    <radialGradient id="bloomtile04svg">
      <stop offset="0" stop-color="#ff8a00" stop-opacity="0.95"/>
      <stop offset="0.45" stop-color="#fd321c" stop-opacity="0.7"/>
      <stop offset="1" stop-color="#fd321c" stop-opacity="0"/>
    </radialGradient>
    <linearGradient id="sweeptile04svg" x1="0" y1="0" x2="1" y2="1">
      <stop offset="0" stop-color="#8f1405"/>
      <stop offset="0.55" stop-color="#fd321c"/>
      <stop offset="1" stop-color="#ff8a00"/>
    </linearGradient>
  </defs>
  <rect width="900" height="1100" fill="#0a0a0b"/>
<rect width="900" height="1100" fill="#111114"/><ellipse cx="591.8" cy="528.4" rx="495" ry="495" fill="url(#bloomtile04svg)" opacity="0.5"/><rect x="45" y="45" width="810" height="60.5" rx="13.2" fill="#fff" opacity="0.07"/><circle cx="69.2" cy="75.3" r="7.7" fill="#fff" opacity="0.2"/><circle cx="97.8" cy="75.3" r="7.7" fill="#fff" opacity="0.2"/><circle cx="126.4" cy="75.3" r="7.7" fill="#fff" opacity="0.2"/><rect x="45" y="127.5" width="810" height="402.9" rx="15.4" fill="url(#sweeptile04svg)" opacity="0.5"/><rect x="81" y="248.4" width="378" height="38.5" rx="3" fill="#fff" opacity="0.7"/><rect x="81" y="308.8" width="270" height="19.8" rx="3" fill="#fff" opacity="0.32"/><rect x="45" y="568.9" width="255" height="217.3" rx="13.2" fill="#fff" opacity="0.092"/><rect x="70.5" y="703.6" width="140.3" height="15.4" rx="2" fill="#fff" opacity="0.3"/><rect x="322.5" y="568.9" width="255" height="259" rx="13.2" fill="#fff" opacity="0.064"/><rect x="348" y="729.5" width="140.3" height="15.4" rx="2" fill="#fd321c" opacity="0.8"/><rect x="600" y="568.9" width="255" height="205.3" rx="13.2" fill="#fff" opacity="0.074"/><rect x="625.5" y="696.2" width="140.3" height="15.4" rx="2" fill="#fff" opacity="0.3"/><rect x="45" y="876.9" width="729" height="13.2" rx="2" fill="#fff" opacity="0.140"/><rect x="45" y="915.4" width="599.4" height="13.2" rx="2" fill="#fff" opacity="0.115"/><rect x="45" y="953.9" width="469.8" height="13.2" rx="2" fill="#fff" opacity="0.090"/><rect x="45" y="992.4" width="340.2" height="13.2" rx="2" fill="#fff" opacity="0.065"/>
</svg>